<svg width="20" height="16" viewBox="0 0 20 16" fill="none" xmlns="http://www.w3.org/2000/svg">
<path d="M11 10H8C7.71667 10 7.47933 10.096 7.288 10.288C7.09667 10.48 7.00067 10.7173 7 11C7 11.2833 7.096 11.521 7.288 11.713C7.48 11.905 7.71733 12.0007 8 12H9C9 12.2833 9.096 12.521 9.288 12.713C9.48 12.905 9.71733 13.0007 10 13C10.2667 13 10.4543 12.879 10.563 12.637C10.6717 12.395 10.8173 12.1827 11 12H12C12.2833 12 12.521 11.904 12.713 11.712C12.905 11.52 13.0007 11.2827 13 11V8C13 7.71667 12.904 7.47933 12.712 7.288C12.52 7.09667 12.2827 7.00067 12 7H9V6H12C12.2833 6 12.521 5.904 12.713 5.712C12.905 5.52 13.0007 5.28267 13 5C13 4.71667 12.904 4.47933 12.712 4.288C12.52 4.09667 12.2827 4.00067 12 4H11C11 3.71667 10.904 3.47933 10.712 3.288C10.52 3.09667 10.2827 3.00067 10 3C9.73333 3 9.546 3.121 9.438 3.363C9.33 3.605 9.184 3.81733 9 4H8C7.71667 4 7.47933 4.096 7.288 4.288C7.09667 4.48 7.00067 4.71733 7 5V8C7 8.28333 7.096 8.521 7.288 8.713C7.48 8.905 7.71733 9.00067 8 9H11V10ZM2 16C1.45 16 0.979333 15.8043 0.588 15.413C0.196667 15.0217 0.000666667 14.5507 0 14V2C0 1.45 0.196 0.979333 0.588 0.588C0.98 0.196666 1.45067 0.000666667 2 0H18C18.55 0 19.021 0.196 19.413 0.588C19.805 0.98 20.0007 1.45067 20 2V14C20 14.55 19.8043 15.021 19.413 15.413C19.0217 15.805 18.5507 16.0007 18 16H2Z" fill="#464B50"/>
</svg>
