<svg width="20" height="20" viewBox="0 0 20 20" fill="none" xmlns="http://www.w3.org/2000/svg">
<path fill-rule="evenodd" clip-rule="evenodd" d="M3.15793 0C2.32039 0 1.51716 0.316071 0.924936 0.87868C0.33271 1.44129 0 2.20435 0 3V17C0 17.7956 0.33271 18.5587 0.924936 19.1213C1.51716 19.6839 2.32039 20 3.15793 20H9.47379C10.3113 20 11.1146 19.6839 11.7068 19.1213C12.299 18.5587 12.6317 17.7956 12.6317 17V3C12.6317 2.20435 12.299 1.44129 11.7068 0.87868C11.1146 0.316071 10.3113 0 9.47379 0H3.15793ZM13.9928 5.293C14.1902 5.10553 14.4579 5.00021 14.737 5.00021C15.0161 5.00021 15.2838 5.10553 15.4812 5.293L19.6918 9.293C19.8891 9.48053 20 9.73484 20 10C20 10.2652 19.8891 10.5195 19.6918 10.707L15.4812 14.707C15.2827 14.8892 15.0168 14.99 14.7408 14.9877C14.4648 14.9854 14.2008 14.8802 14.0056 14.6948C13.8104 14.5094 13.6997 14.2586 13.6973 13.9964C13.6949 13.7342 13.801 13.4816 13.9928 13.293L16.4065 11H7.3685C7.08933 11 6.82158 10.8946 6.62417 10.7071C6.42676 10.5196 6.31586 10.2652 6.31586 10C6.31586 9.73478 6.42676 9.48043 6.62417 9.29289C6.82158 9.10536 7.08933 9 7.3685 9H16.4065L13.9928 6.707C13.7954 6.51947 13.6846 6.26516 13.6846 6C13.6846 5.73484 13.7954 5.48053 13.9928 5.293Z" fill="#464B50"/>
</svg>
