<svg width="22" height="28" viewBox="0 0 22 28" fill="none" xmlns="http://www.w3.org/2000/svg">
<g filter="url(#filter0_d_4064_551)">
<path d="M11 0C11.9889 0 12.9556 0.293245 13.7779 0.842652C14.6001 1.39206 15.241 2.17295 15.6194 3.08658C15.9978 4.00021 16.0969 5.00555 15.9039 5.97545C15.711 6.94536 15.2348 7.83627 14.5355 8.53553C13.8363 9.2348 12.9454 9.711 11.9755 9.90393C11.0055 10.0969 10.0002 9.99784 9.08658 9.6194C8.17295 9.24096 7.39206 8.6001 6.84265 7.77785C6.29324 6.95561 6 5.98891 6 5L6.005 4.783C6.06092 3.49575 6.61161 2.27978 7.54222 1.38866C8.47284 0.497541 9.71154 7.44425e-05 11 0ZM13 12C14.3261 12 15.5979 12.5268 16.5355 13.4645C17.4732 14.4021 18 15.6739 18 17V18C18 18.5304 17.7893 19.0391 17.4142 19.4142C17.0391 19.7893 16.5304 20 16 20H6C5.46957 20 4.96086 19.7893 4.58579 19.4142C4.21071 19.0391 4 18.5304 4 18V17C4 15.6739 4.52678 14.4021 5.46447 13.4645C6.40215 12.5268 7.67392 12 9 12H13Z" fill="#464B50"/>
</g>
<defs>
<filter id="filter0_d_4064_551" x="0" y="0" width="22" height="28" filterUnits="userSpaceOnUse" color-interpolation-filters="sRGB">
<feFlood flood-opacity="0" result="BackgroundImageFix"/>
<feColorMatrix in="SourceAlpha" type="matrix" values="0 0 0 0 0 0 0 0 0 0 0 0 0 0 0 0 0 0 127 0" result="hardAlpha"/>
<feOffset dy="4"/>
<feGaussianBlur stdDeviation="2"/>
<feComposite in2="hardAlpha" operator="out"/>
<feColorMatrix type="matrix" values="0 0 0 0 0 0 0 0 0 0 0 0 0 0 0 0 0 0 0.25 0"/>
<feBlend mode="normal" in2="BackgroundImageFix" result="effect1_dropShadow_4064_551"/>
<feBlend mode="normal" in="SourceGraphic" in2="effect1_dropShadow_4064_551" result="shape"/>
</filter>
</defs>
</svg>
