<svg width="140" height="85" viewBox="0 0 140 85" fill="none" xmlns="http://www.w3.org/2000/svg">
<path d="M77.8847 0.0390161C77.5725 0.0390161 76.7922 0.0780322 76.7532 0.0780322C76.1679 0.156064 75.6997 0.663274 75.6997 1.24852C75.6997 1.32655 75.7388 1.67769 75.7388 1.75573C75.7388 2.419 75.1925 2.96522 74.5293 2.96522C74.3732 2.96522 73.944 2.80916 73.866 2.77014C72.7735 2.1849 71.6421 1.67769 70.4326 1.28753C68.1306 0.429177 65.5946 0 62.9805 0C50.3003 0 40 10.3003 40 22.9805C40 35.6607 50.3003 45.961 62.9805 45.961C63.3316 45.961 63.6438 45.922 63.9949 45.922C63.9949 45.922 64.9313 45.4928 64.8143 44.5564C64.8143 44.4784 64.5802 42.9177 66.3359 43.0738C66.531 43.0738 66.9211 43.2299 66.9601 43.2299C68.0526 43.8151 69.2231 44.3223 70.4326 44.7515C72.7735 45.5708 75.3096 46 77.9237 46C90.6039 46 100.904 35.6997 100.904 23.0195C100.904 10.3393 90.5649 0.0390161 77.8847 0.0390161ZM82.6836 34.8024C80.9279 35.6607 78.9381 36.1289 76.8702 36.1289C74.5293 36.1289 72.3053 35.5047 70.3936 34.4512L63.9949 30.7447V36.1289C61.888 36.1289 59.8982 35.6217 58.1425 34.7634C53.8507 32.6175 50.8855 28.2477 50.8075 23.1366C50.8075 16.2307 54.9042 12.8363 58.2595 11.0416C59.9372 10.1442 61.9271 9.75403 63.9949 9.75403C66.3359 9.75403 68.5598 10.3783 70.4716 11.4707L76.8702 15.1773V9.75403C78.9381 9.75403 80.8889 10.2222 82.6446 11.0806C86.9754 13.1874 89.9796 17.5963 90.0577 22.7464C90.0967 28.2477 87.0534 32.6565 82.6836 34.8024Z" fill="white"/>
<path d="M38 70.6764V82.3213C38 83.8095 36.8 85 35.3 85C33.8 85 32.6 83.8095 32.6 82.3213V70.6764C32.6 67.8861 30.3125 65.6167 27.5 65.6167C24.6875 65.6167 22.4 67.8861 22.4 70.6764V82.3213C22.4 83.8095 21.2 85 19.7 85C18.2 85 17 83.8095 17 82.3213V54.6787C17 53.1905 18.2 52 19.7 52C21.2 52 22.4 53.1905 22.4 54.6787V61.5614C23.9 60.743 25.6625 60.2593 27.5 60.2593C33.275 60.2221 38 64.9098 38 70.6764Z" fill="white"/>
<path d="M63 70.5264V82.2933C63 83.797 61.8 85 60.3 85C58.8 85 57.6 83.797 57.6 82.2933C57.6 82.2933 57.6 70.6016 57.6 70.5264C57.6 67.7069 55.3125 65.4137 52.5 65.4137C49.6875 65.4137 47.4 67.7069 47.4 70.5264V82.2933C47.4 83.797 46.2 85 44.7 85C43.2 85 42 83.797 42 82.2933V70.5264C42 64.6994 46.6875 60.0002 52.5 60.0002C58.275 59.9626 63 64.6994 63 70.5264Z" fill="white"/>
<path d="M89 62.7075V74.474C89 80.3009 84.3125 85 78.5 85C72.6875 85 68 80.3009 68 74.474V62.7075C68 61.2038 69.2 60.0008 70.7 60.0008C72.2 60.0008 73.4 61.2038 73.4 62.7075V74.474C73.4 77.2935 75.6875 79.5866 78.5 79.5866C81.3125 79.5866 83.6 77.2935 83.6 74.474V62.7075C83.6 61.2038 84.8 60.0008 86.3 60.0008C87.7625 59.9632 89 61.2038 89 62.7075Z" fill="white"/>
<path d="M104.5 60.2314C102.663 60.2314 100.9 60.7156 99.4 61.535V54.6817C99.4 53.1919 98.2 52 96.7 52C95.2 52 94 53.1919 94 54.6817V74.4221C94 74.4966 94 74.5339 94 74.5711C94 80.3442 98.6875 85 104.5 85C110.312 85 115 80.3442 115 74.5711V70.5858C114.962 64.8871 110.275 60.2314 104.5 60.2314ZM109.6 74.4221C109.6 77.2156 107.312 79.4876 104.5 79.4876C101.688 79.4876 99.4 77.2156 99.4 74.4221V70.6975C99.4 67.9041 101.688 65.6321 104.5 65.6321C107.275 65.6321 109.562 67.8668 109.6 70.623V74.4221Z" fill="white"/>
<path d="M13 62.7034C13 64.0548 12.0057 65.2184 10.7167 65.4061C10.5694 65.4436 10.0538 65.4436 9.90651 65.4061C7.32861 65.5937 5.30311 67.8459 5.30311 70.5485V82.2974C5.30311 83.7988 4.12464 85 2.65156 85C1.17847 85 0 83.7988 0 82.2974V69.9855C0.184136 66.2319 2.28328 63.0413 5.30311 61.3146C6.7762 60.4888 8.50708 60.0008 10.3116 60.0008C11.8215 59.9633 13 61.202 13 62.7034Z" fill="white"/>
<path d="M129.5 60C121.212 60.188 119 67.218 119 70.639C119 71.3909 119 73.1202 119 74.6615C119.075 80.4133 123.762 85.0374 129.5 84.9998C133.062 84.9998 136.063 83.2329 137.9 80.7893C138.2 80.3758 138.35 79.8494 138.35 79.2855C138.35 78.4961 138.013 77.8194 137.525 77.3307C137 76.842 136.4 76.5788 135.65 76.5788C134.825 76.5788 134.113 76.9547 133.588 77.5186C133.55 77.5562 133.55 77.5562 133.513 77.5938C132.575 78.7968 131.112 79.5863 129.5 79.5863C126.762 79.5863 124.513 77.4059 124.4 74.6991C124.4 74.6991 124.438 74.6991 124.4 74.6991H137.187C138.275 74.6991 139.213 74.06 139.663 73.1578C139.7 72.9698 139.775 72.7442 139.812 72.5563C139.85 72.2931 139.888 72.03 139.925 71.7668C139.963 71.3909 140 70.9773 140 70.6014C140 64.6992 135.275 60 129.5 60ZM124.588 69.2104C125.188 67.03 127.137 65.4511 129.5 65.4511C131.862 65.4511 133.813 67.0676 134.413 69.2104H124.588Z" fill="white"/>
</svg>
