<svg width="180" height="38" viewBox="0 0 180 38" fill="none" xmlns="http://www.w3.org/2000/svg">
<path d="M31.0665 0.0319944C30.8106 0.0319944 30.1707 0.0639887 30.1387 0.0639887C29.6588 0.127977 29.2748 0.543904 29.2748 1.02382C29.2748 1.08781 29.3068 1.37576 29.3068 1.43975C29.3068 1.98365 28.8589 2.43157 28.315 2.43157C28.187 2.43157 27.8351 2.30359 27.7711 2.2716C26.8753 1.79168 25.9474 1.37576 24.9556 1.05581C23.0679 0.351938 20.9883 0 18.8447 0C8.44651 0 0 8.44651 0 18.8447C0 29.2428 8.44651 37.6894 18.8447 37.6894C19.1326 37.6894 19.3886 37.6574 19.6765 37.6574C19.6765 37.6574 20.4444 37.3054 20.3484 36.5376C20.3484 36.4736 20.1564 35.1938 21.5962 35.3218C21.7562 35.3218 22.0761 35.4497 22.1081 35.4497C23.0039 35.9297 23.9638 36.3456 24.9556 36.6975C26.8753 37.3694 28.9549 37.7213 31.0985 37.7213C41.4967 37.7213 49.9432 29.2748 49.9432 18.8767C49.9432 8.47851 41.4647 0.0319944 31.0665 0.0319944ZM35.0018 28.539C33.5621 29.2428 31.9304 29.6268 30.2347 29.6268C28.315 29.6268 26.4913 29.1149 24.9236 28.251L19.6765 25.2116V29.6268C17.9488 29.6268 16.3171 29.2108 14.8774 28.507C11.358 26.7473 8.92643 23.1639 8.86244 18.9727C8.86244 13.3097 12.2218 10.5261 14.9734 9.0544C16.3491 8.31853 17.9808 7.99859 19.6765 7.99859C21.5962 7.99859 23.4199 8.5105 24.9876 9.40634L30.2347 12.4458V7.99859C31.9304 7.99859 33.5301 8.38252 34.9698 9.0864C38.5212 10.8141 40.9848 14.4295 41.0488 18.6527C41.0808 23.1639 38.5852 26.7793 35.0018 28.539Z" fill="#00AAFA"/>
<path d="M93.4246 20.8605V30.8747C93.4246 32.1545 92.4008 33.1783 91.1211 33.1783C89.8413 33.1783 88.8175 32.1545 88.8175 30.8747V20.8605C88.8175 18.4609 86.8658 16.5092 84.4662 16.5092C82.0667 16.5092 80.115 18.4609 80.115 20.8605V30.8747C80.115 32.1545 79.0912 33.1783 77.8114 33.1783C76.5316 33.1783 75.5078 32.1545 75.5078 30.8747V7.10291C75.5078 5.82314 76.5316 4.79932 77.8114 4.79932C79.0912 4.79932 80.115 5.82314 80.115 7.10291V13.0219C81.3948 12.318 82.8985 11.9021 84.4662 11.9021C89.3934 11.8701 93.4246 15.9014 93.4246 20.8605Z" fill="#464B50"/>
<path d="M115.179 20.8282V30.8425C115.179 32.1222 114.155 33.1461 112.875 33.1461C111.595 33.1461 110.571 32.1222 110.571 30.8425C110.571 30.8425 110.571 20.8922 110.571 20.8282C110.571 18.4287 108.62 16.477 106.22 16.477C103.821 16.477 101.869 18.4287 101.869 20.8282V30.8425C101.869 32.1222 100.845 33.1461 99.5653 33.1461C98.2855 33.1461 97.2617 32.1222 97.2617 30.8425V20.8282C97.2617 15.8691 101.261 11.8698 106.22 11.8698C111.147 11.8378 115.179 15.8691 115.179 20.8282Z" fill="#464B50"/>
<path d="M136.745 14.1734V24.1877C136.745 29.1468 132.746 33.1461 127.787 33.1461C122.827 33.1461 118.828 29.1468 118.828 24.1877V14.1734C118.828 12.8937 119.852 11.8698 121.132 11.8698C122.411 11.8698 123.435 12.8937 123.435 14.1734V24.1877C123.435 26.5873 125.387 28.5389 127.787 28.5389C130.186 28.5389 132.138 26.5873 132.138 24.1877V14.1734C132.138 12.8937 133.162 11.8698 134.441 11.8698C135.689 11.8379 136.745 12.8937 136.745 14.1734Z" fill="#464B50"/>
<path d="M149.958 11.8378C148.391 11.8378 146.887 12.2538 145.607 12.9576V7.07068C145.607 5.79091 144.583 4.76709 143.304 4.76709C142.024 4.76709 141 5.79091 141 7.07068V24.0277C141 24.0917 141 24.1237 141 24.1557C141 29.1148 144.999 33.1141 149.958 33.1141C154.918 33.1141 158.917 29.1148 158.917 24.1557V20.7323C158.885 15.8371 154.886 11.8378 149.958 11.8378ZM154.31 24.0277C154.31 26.4273 152.358 28.3789 149.958 28.3789C147.559 28.3789 145.607 26.4273 145.607 24.0277V20.8283C145.607 18.4287 147.559 16.477 149.958 16.477C152.326 16.477 154.278 18.3967 154.31 20.7643V24.0277Z" fill="#464B50"/>
<path d="M72.7237 14.1734C72.7237 15.3252 71.8598 16.3171 70.74 16.477C70.6121 16.509 70.1641 16.509 70.0362 16.477C67.7966 16.637 66.0369 18.5567 66.0369 20.8603V30.8745C66.0369 32.1543 65.0131 33.1781 63.7333 33.1781C62.4535 33.1781 61.4297 32.1543 61.4297 30.8745V20.3803C61.5897 17.1809 63.4133 14.4614 66.0369 12.9897C67.3166 12.2858 68.8204 11.8698 70.3881 11.8698C71.6999 11.8379 72.7237 12.8937 72.7237 14.1734Z" fill="#464B50"/>
<path d="M171.04 11.8696C163.97 12.0296 162.082 18.0125 162.082 20.924C162.082 21.5639 162.082 23.0357 162.082 24.3474C162.146 29.2426 166.145 33.1779 171.04 33.1459C174.08 33.1459 176.639 31.6421 178.207 29.5625C178.463 29.2106 178.591 28.7627 178.591 28.2827C178.591 27.6109 178.303 27.035 177.887 26.619C177.439 26.2031 176.927 25.9791 176.288 25.9791C175.584 25.9791 174.976 26.2991 174.528 26.779C174.496 26.811 174.496 26.811 174.464 26.843C173.664 27.8668 172.416 28.5387 171.04 28.5387C168.705 28.5387 166.785 26.683 166.689 24.3794C166.689 24.3794 166.721 24.3794 166.689 24.3794H177.599C178.527 24.3794 179.327 23.8355 179.711 23.0677C179.743 22.9077 179.807 22.7157 179.839 22.5557C179.871 22.3318 179.903 22.1078 179.935 21.8839C179.967 21.5639 179.999 21.212 179.999 20.892C179.999 15.8689 175.968 11.8696 171.04 11.8696ZM166.849 19.7082C167.361 17.8526 169.025 16.5088 171.04 16.5088C173.056 16.5088 174.72 17.8846 175.232 19.7082H166.849Z" fill="#464B50"/>
</svg>
