<?xml version="1.0" encoding="utf-8"?>
<!-- Generator: Adobe Illustrator 24.3.0, SVG Export Plug-In . SVG Version: 6.00 Build 0)  -->
<svg version="1.1" id="Capa_1" xmlns="http://www.w3.org/2000/svg" xmlns:xlink="http://www.w3.org/1999/xlink" x="0px" y="0px"
	 viewBox="0 0 510.8 510.2" style="enable-background:new 0 0 510.8 510.2;" xml:space="preserve">
<style type="text/css">
	.st0{fill:#378CF4;}
</style>
<g id="Capa_2_1_">
	<g id="Mano_R">
		<path class="st0" d="M367.4,68.3l75,75c-0.9,1-2.1,2.3-3.3,3.6c-54,54-108,107.9-162,161.8c-3.3,3.2-7.4,5.4-11.9,6.4
			c-23.2,5-46.5,9.5-69.8,14.1c-9.6,1.9-15.8-4.2-13.9-13.7c4.8-24.1,9.6-48.2,14.7-72.3c0.6-2.9,2-5.6,4-7.7
			C255.4,180,310.7,124.6,366.2,69.3C366.6,68.9,367,68.6,367.4,68.3z"/>
		<path class="st0" d="M390.6,44.4C402.2,33.3,413.2,21,426,10.8c20.9-16.6,50.9-13.6,69.4,5.5c18.6,19.1,20.8,49.2,3.6,69.5
			c-10.2,12.1-23,22-34.2,32.7L390.6,44.4z"/>
		<path class="st0" d="M403.6,255.3c-11.8,0-21.4,9.6-21.4,21.4v169.1c0,11.9-9.7,21.6-21.6,21.6H64.4c-11.9,0-21.6-9.7-21.6-21.6
			V149.6c0-11.9,9.7-21.6,21.6-21.6h169.5c11.8,0,21.4-9.6,21.4-21.4s-9.6-21.4-21.4-21.4h-170C28.6,85.2,0,113.8,0,149.1v297.2
			c0,35.3,28.6,63.9,63.9,63.9c0,0,0,0,0,0h297.2c35.3,0,63.9-28.6,63.9-63.9l0,0V276.7C425,264.9,415.4,255.3,403.6,255.3z"/>
	</g>
</g>
</svg>
