<?xml version="1.0" encoding="utf-8"?>
<!-- Generator: Adobe Illustrator 24.3.0, SVG Export Plug-In . SVG Version: 6.00 Build 0)  -->
<svg version="1.1" id="Capa_1" xmlns="http://www.w3.org/2000/svg" xmlns:xlink="http://www.w3.org/1999/xlink" x="0px" y="0px"
	 viewBox="0 0 383.3 383.3" style="enable-background:new 0 0 383.3 383.3;" xml:space="preserve">
<style type="text/css">
	.st0{fill:#378CF4;}
</style>
<g id="Capa_2_1_">
	<g id="Cabeza">
		<path class="st0" d="M383.3,68.1v276.2c-0.3,0.8-0.6,1.6-0.8,2.4c-4.3,21.1-22.2,36.4-43.4,36.5c-98.3,0.1-196.6,0.1-294.9,0
			C20,383,0.3,363.3,0.1,339C0,240.7,0,142.4,0.1,44.2c0-14.3,6.3-25.9,17.5-34.8C23.9,4.3,31.4,2,39,0h276.2
			C315.7,0.7,383.3,68.1,383.3,68.1z M57.7,353.2V223.6c0-28,20.1-47.7,48.4-46.9c57.6,1.5,115.2,0.7,172.9,0
			c27.8-0.3,47.5,19.2,47.5,46.9v129.7h10.4c10.4,0,16.5-6.1,16.5-16.5c0-84.2,0-168.4-0.1-252.6c-0.1-2-0.9-3.9-2.3-5.4
			c-15.1-15.4-30.5-30.5-45.6-45.9c-0.9-1-2-1.8-3.3-2.4c-2.1-0.8-4.4,0.2-5.2,2.3c-0.2,0.5-0.3,1-0.3,1.5l0,0c0,22.1,0,44.2,0,66.2
			c0,27.7-21.5,47.9-49.8,46c-36.5-2.5-73.1-2-109.6,0c-28.3,1.6-49.4-18.5-49.4-46.2c0-22.1,0-44.2,0-66.2v-4.2H48
			c-12.5,0-18,5.5-18,18v287.4c0,1.1,0,2.2,0,3.4c0.3,7.3,5.6,13.6,12.8,14.4C47.6,353.6,52.5,353.2,57.7,353.2z M87.6,353h208.9v-4
			c0-41.8,0-83.6,0-125.4c0-11.7-6.5-17.6-18.6-17.1c-57.3,2.7-114.6,2-172,0c-11.9-0.4-18.2,5.5-18.2,17.1c0,41.8,0,83.6,0,125.4
			L87.6,353z M117.6,30.1V34c0,22,0,43.9,0,65.8c0,11.1,6.1,17,17.3,16.9c37.7-0.6,75.5-2,113.2,0c11.9,0.6,18.5-5.4,18.5-16.8
			c0-21.9,0-43.9,0-65.8v-3.9h-30v56.4h-30V30.1L117.6,30.1z"/>
	</g>
</g>
</svg>
